0.11m3min_grf.mot
version=1
nRows=12
nColumns 19
inDegrees=yes
endheader
time	1_ground_force_vx	1_ground_force_vy	1_ground_force_vz	1_ground_force_px	1_ground_force_py	1_ground_force_pz	1_ground_torque_x	1_ground_torque_y	1_ground_torque_z	2_ground_force_vx	2_ground_force_vy	2_ground_force_vz	2_ground_force_px	2_ground_force_py	2_ground_force_pz	2_ground_torque_x	2_ground_torque_y	2_ground_torque_z
            3.751500	           -0.274675	           -3.965308	           -0.153890	           -0.233013	            0.005581	           -0.255695	           -0.555421	           -0.045328	           -0.273576	            0.147504	           -1.843486	            0.697291	           -0.232311	            0.006130	           -0.833667	           -0.375526	           -0.067055	           -0.132028
            3.752000	            0.321400	           -5.226856	           -0.206636	           -0.233013	            0.005581	           -0.255695	           -0.533927	            0.029057	           -0.285451	           -0.040580	           -1.659847	            0.651100	           -0.232311	            0.006130	           -0.833667	           -0.281396	           -0.114248	           -0.056836
            3.752500	            0.045788	           -4.685326	           -0.387058	           -0.233013	            0.005581	           -0.255695	           -0.470128	            0.075073	           -0.278361	           -0.084792	           -2.396442	            0.601563	           -0.232311	            0.006130	           -0.833667	           -0.262457	           -0.152126	           -0.019278
            3.753000	           -0.091888	           -4.504890	           -0.431800	           -0.233013	            0.005581	           -0.255695	           -0.505889	            0.047351	           -0.303060	            0.099928	           -1.659005	            0.557184	           -0.232311	            0.006130	           -0.833667	           -0.375366	           -0.095884	           -0.000177
            3.753500	            0.092281	           -4.506231	           -0.111263	           -0.233013	            0.005581	           -0.255695	           -0.575719	           -0.026755	           -0.238991	            0.192943	           -1.474351	            0.510873	           -0.232311	            0.006130	           -0.833667	           -0.375366	           -0.095884	           -0.000177
            3.754000	           -0.320126	           -4.867039	           -0.065929	           -0.233013	            0.005581	           -0.255695	           -0.558649	           -0.128698	           -0.238252	            0.007640	           -2.028309	            0.743622	           -0.232311	            0.006130	           -0.833667	           -0.450634	           -0.067595	           -0.056595
            3.754500	           -0.320192	           -4.506507	           -0.064384	           -0.233013	            0.005581	           -0.255695	           -0.540305	           -0.072912	           -0.313264	           -0.415421	           -1.660866	            0.557403	           -0.232311	            0.006130	           -0.833667	           -0.281636	           -0.038895	            0.018835
            3.755000	           -0.137015	           -4.686344	           -0.157323	           -0.233013	            0.005581	           -0.255695	           -0.554995	           -0.017454	           -0.286366	            0.099243	           -1.474689	            0.510913	           -0.232311	            0.006130	           -0.833667	           -0.356623	           -0.086296	           -0.019002
            3.755500	           -0.045104	           -3.425253	            0.031283	           -0.233013	            0.005581	           -0.255695	           -0.619814	            0.093262	           -0.225472	            0.100572	           -1.842986	            0.509599	           -0.232311	            0.006130	           -0.833667	           -0.337701	           -0.124039	           -0.019145
            3.756000	           -0.091304	           -3.965273	           -0.154345	           -0.233013	            0.005581	           -0.255695	           -0.649291	            0.111876	           -0.264850	            0.380404	           -1.474176	            0.651578	           -0.232311	            0.006130	           -0.833667	           -0.413207	           -0.038765	           -0.150761
            3.756500	           -0.045395	           -4.325795	           -0.156005	           -0.233013	            0.005581	           -0.255695	           -0.592583	            0.028476	           -0.206987	            0.194895	           -2.026461	            0.415046	           -0.232311	            0.006130	           -0.833667	           -0.262756	           -0.067118	           -0.000124
            3.757000	           -0.229303	           -4.505113	           -0.385602	           -0.233013	            0.005581	           -0.255695	           -0.639151	           -0.054575	           -0.271434	            0.101340	           -2.027971	            0.743582	           -0.232311	            0.006130	           -0.833667	           -0.394151	           -0.095951	           -0.000170
